<svg width="48" height="48" viewBox="0 0 48 48" fill="none" xmlns="http://www.w3.org/2000/svg">
<rect width="48" height="48" rx="24" fill="#F0F6FE"/>
<g clip-path="url(#clip0_13_991)">
<path d="M31.6889 16.6363C31.4667 15.9725 30.8444 15.5 30.1111 15.5H17.8889C17.1556 15.5 16.5444 15.9725 16.3111 16.6363L14 23.375V32.375C14 32.9937 14.5 33.5 15.1111 33.5H16.2222C16.8333 33.5 17.3333 32.9937 17.3333 32.375V31.25H30.6667V32.375C30.6667 32.9937 31.1667 33.5 31.7778 33.5H32.8889C33.5 33.5 34 32.9937 34 32.375V23.375L31.6889 16.6363ZM17.8889 27.875C16.9667 27.875 16.2222 27.1213 16.2222 26.1875C16.2222 25.2537 16.9667 24.5 17.8889 24.5C18.8111 24.5 19.5556 25.2537 19.5556 26.1875C19.5556 27.1213 18.8111 27.875 17.8889 27.875ZM30.1111 27.875C29.1889 27.875 28.4444 27.1213 28.4444 26.1875C28.4444 25.2537 29.1889 24.5 30.1111 24.5C31.0333 24.5 31.7778 25.2537 31.7778 26.1875C31.7778 27.1213 31.0333 27.875 30.1111 27.875ZM16.2222 22.25L17.8889 17.1875H30.1111L31.7778 22.25H16.2222Z" fill="#243875"/>
</g>
<defs>
<clipPath id="clip0_13_991">
<rect width="20" height="18" fill="white" transform="translate(14 15.5)"/>
</clipPath>
</defs>
</svg>
