<svg xmlns="http://www.w3.org/2000/svg" width="48" height="48" viewBox="0 0 48 48" fill="none">
    <rect width="48" height="48" rx="24" fill="#F0F6FE"/>
    <path d="M31.8385 20.8335C31.2348 20.829 30.6547 20.9302 30.1147 21.1199L28.777 18.8333H32.125C32.6635 18.8333 33.1 18.3856 33.1 17.8333V16.5C33.1 15.9477 32.6635 15.5 32.125 15.5H30.2842C30.1475 15.5 30.0124 15.5295 29.8876 15.5865C29.7627 15.6435 29.6509 15.7268 29.5595 15.831L28.0362 17.567L27.111 15.9855C27.0244 15.8374 26.9019 15.7149 26.7554 15.6298C26.6089 15.5447 26.4434 15.5 26.275 15.5H23.025C22.666 15.5 22.375 15.7985 22.375 16.1667V16.8333C22.375 17.2015 22.666 17.5 23.025 17.5H25.7229L26.5029 18.8333H20.2586C19.5384 17.872 18.4336 17.1667 16.2 17.1667H13.9469C13.4003 17.1667 12.9398 17.6255 12.9502 18.186C12.9602 18.7294 13.3928 19.1667 13.925 19.1667H16.2C17.1955 19.1667 17.7716 19.6216 18.1413 20.1987L17.6826 21.0541C17.1543 20.893 16.591 20.8151 16.0068 20.837C13.2692 20.9395 11.0636 23.2335 11.0014 26.0425C10.9349 29.0448 13.2879 31.5 16.2 31.5C18.6229 31.5 20.6583 29.8002 21.2356 27.5H24.6577C25.2131 27.5 25.6566 27.0241 25.6317 26.4551C25.5456 24.4918 26.3435 22.5524 27.9142 21.2457L28.4214 22.1127C27.2983 23.0983 26.5893 24.566 26.6001 26.2035C26.6192 29.1017 28.924 31.4723 31.7497 31.4997C34.6596 31.528 37.0244 29.1045 36.9998 26.1206C36.9759 23.221 34.6657 20.8545 31.8385 20.8335ZM16.2 29.5C14.4079 29.5 12.95 28.0047 12.95 26.1667C12.95 24.3287 14.4079 22.8333 16.2 22.8333C16.3723 22.8333 16.5414 22.8475 16.7065 22.8742L15.0206 26.0181C14.6638 26.6836 15.1341 27.5 15.875 27.5H19.1777C18.6751 28.676 17.5299 29.5 16.2 29.5ZM31.9767 29.4952C30.1048 29.5974 28.55 28.0647 28.55 26.1667C28.55 25.2765 28.8926 24.4675 29.4488 23.869L31.4562 27.3003C31.6409 27.616 32.0402 27.7184 32.348 27.529L32.9053 27.186C33.2132 26.9966 33.313 26.587 33.1283 26.2713L31.1557 22.8994C31.3678 22.8554 31.5836 22.8333 31.8 22.8333C33.6506 22.8333 35.145 24.428 35.0453 26.348C34.9575 28.0379 33.6244 29.4052 31.9767 29.4952Z" fill="#243875"/>
</svg>