<svg width="48" height="48" viewBox="0 0 48 48" fill="none" xmlns="http://www.w3.org/2000/svg">
<rect width="48" height="48" rx="24" fill="#F0F6FE"/>
<g clip-path="url(#clip0_13_982)">
<path d="M31.5866 14.9318H16.3578C15.6088 14.9318 15 15.5471 15 16.3041V31.6917C15 32.4528 15.6088 33.0681 16.3578 33.0681H31.5826C32.3316 33.0681 32.9404 32.4528 32.9404 31.6958V16.3041C32.9444 15.5471 32.3356 14.9318 31.5866 14.9318ZM24.517 29.4692C21.5289 29.7728 18.8613 27.5705 18.5609 24.5505H22.342V25.3764C22.342 25.5262 22.4622 25.6516 22.6144 25.6516H25.3341C25.4823 25.6516 25.6064 25.5302 25.6064 25.3764V22.6276C25.6064 22.4778 25.4863 22.3523 25.3341 22.3523H22.6144C22.4662 22.3523 22.342 22.4737 22.342 22.6276V23.4534H18.5609C18.8412 20.6439 21.1804 18.5064 23.9722 18.5064C26.764 18.5064 29.1032 20.6439 29.3836 23.4534C29.684 26.4694 27.505 29.1656 24.517 29.4692Z" fill="#243875"/>
</g>
<defs>
<clipPath id="clip0_13_982">
<rect width="18" height="19" fill="white" transform="translate(15 14.5)"/>
</clipPath>
</defs>
</svg>
