<svg width="61" height="61" viewBox="0 0 61 61" fill="none" xmlns="http://www.w3.org/2000/svg">
<g clip-path="url(#clip0_74_648)">
<path d="M14.6797 37.7361V52.7656C14.6797 56.3253 11.7939 59.2109 8.23438 59.2109C4.67469 59.2109 1.78906 56.3253 1.78906 52.7656C1.78906 49.2059 4.67469 46.3203 8.23438 46.3203H32.2577C41.3186 46.3203 48.6641 38.975 48.6641 29.9141" stroke="#2E90FA" stroke-width="2" stroke-miterlimit="10" stroke-linecap="round" stroke-linejoin="round"/>
<path d="M48.6962 17.03C48.6962 17.03 49.6794 15.601 51.5702 15.6353C53.256 15.6659 54.3909 17.172 54.3594 18.9014C54.3229 20.9031 52.6962 23.2428 48.5471 25.2266C44.473 23.0934 42.9322 20.6961 42.9686 18.6944C43.0001 16.965 44.1889 15.5011 45.8748 15.5317C47.7657 15.5661 48.6962 17.03 48.6962 17.03Z" stroke="#2E90FA" stroke-width="2" stroke-miterlimit="10" stroke-linecap="round" stroke-linejoin="round"/>
<path d="M4.1328 18.1953L2.75221 9.9125C2.24807 6.88695 4.58115 4.13281 7.64842 4.13281" stroke="white" stroke-width="2" stroke-miterlimit="10" stroke-linecap="round" stroke-linejoin="round"/>
<path d="M9.99207 6.47656H7.64844V1.78906H9.99207C11.2866 1.78906 12.3358 2.83836 12.3358 4.13281C12.3359 5.42727 11.2866 6.47656 9.99207 6.47656Z" stroke="white" stroke-width="2" stroke-miterlimit="10" stroke-linecap="round" stroke-linejoin="round"/>
<path d="M25.2266 18.1953L26.607 9.9125C27.1113 6.88695 24.7782 4.13281 21.7108 4.13281" stroke="white" stroke-width="2" stroke-miterlimit="10" stroke-linecap="round" stroke-linejoin="round"/>
<path d="M19.3672 6.47656H21.7108V1.78906H19.3672C18.0727 1.78906 17.0234 2.83836 17.0234 4.13281C17.0234 5.42727 18.0727 6.47656 19.3672 6.47656Z" stroke="white" stroke-width="2" stroke-miterlimit="10" stroke-linecap="round" stroke-linejoin="round"/>
<path d="M22.8828 18.1953V19.3672C22.8828 23.8977 19.2102 27.5703 14.6798 27.5703C10.1493 27.5703 6.47668 23.8975 6.47668 19.3672V18.1953H1.78906V19.3672C1.78906 25.6861 6.33582 30.9424 12.3359 32.0445V35.3923C12.3359 36.6868 13.3852 37.7361 14.6797 37.7361C15.9741 37.7361 17.0234 36.6868 17.0234 35.3923V32.0445C23.0236 30.9425 27.5703 25.6862 27.5703 19.3672V18.1953H22.8828Z" stroke="white" stroke-width="2" stroke-miterlimit="10" stroke-linecap="round" stroke-linejoin="round"/>
<path d="M56.1213 26.8251C60.24 22.7064 60.24 16.0285 56.1213 11.9097C52.0025 7.79097 45.3246 7.79097 41.2059 11.9097C37.0871 16.0285 37.0871 22.7064 41.2059 26.8251C45.3246 30.9439 52.0025 30.9439 56.1213 26.8251Z" stroke="white" stroke-width="2" stroke-miterlimit="10" stroke-linecap="round" stroke-linejoin="round"/>
</g>
<defs>
<clipPath id="clip0_74_648">
<rect width="60" height="60" fill="white" transform="translate(0.5 0.5)"/>
</clipPath>
</defs>
</svg>
