<svg width="40" height="40" viewBox="0 0 40 40" fill="none" xmlns="http://www.w3.org/2000/svg">
<path d="M30.5343 19.8198L24.6456 16.3608" stroke="white" stroke-width="2" stroke-miterlimit="10" stroke-linejoin="round"/>
<path d="M28.0165 38.9997H19.011V31.0984H10.0055V23.2627H1V38.9997H19.011" stroke="#2E90FA" stroke-width="2" stroke-miterlimit="10" stroke-linecap="round" stroke-linejoin="round"/>
<path d="M31.0362 8.5195L25.1198 9.38962L20.9648 7.13747C20.0593 6.64672 18.9274 6.98415 18.4385 7.89056C17.9514 8.7938 18.2868 9.92085 19.1886 10.4107L23.7046 12.8638C24.1733 13.1184 24.705 13.2338 25.2371 13.1964L26.7011 13.0937" stroke="white" stroke-width="2" stroke-miterlimit="10" stroke-linecap="round" stroke-linejoin="round"/>
<path d="M18.4666 20.9707L14.7067 27.8904C14.1349 28.9427 14.5232 30.2592 15.5744 30.8329C16.6284 31.4081 17.9494 31.0185 18.5225 29.9633L21.2323 24.9738C21.4959 24.4886 21.9381 24.1254 22.4652 23.9611L25.5581 22.9971" stroke="white" stroke-width="2" stroke-miterlimit="10" stroke-linecap="round" stroke-linejoin="round"/>
<path d="M11.3629 19.2068L17.7983 16.3956C18.5217 16.0796 19.3341 16.0321 20.0894 16.2617L23.9571 17.4377L28.6802 10.0523C29.6955 8.46469 31.8055 8.00071 33.3932 9.016C33.6839 9.20189 33.9365 9.4247 34.1496 9.6741L38.4037 14.6814C38.6753 15.0015 38.8307 15.4042 38.8447 15.8238L38.999 20.5809C39.0323 21.6077 38.2274 22.4672 37.2007 22.5013C36.1728 22.5355 35.312 21.7294 35.2787 20.7014L35.1459 16.5955L33.5784 15.0601L29.4226 21.5586C28.7714 22.5769 27.67 23.1328 26.5447 23.1328C26.1407 23.1328 25.7337 23.0607 25.3432 22.9129L19.0932 20.5673L13.1016 23.186C12.0013 23.6669 10.7195 23.1632 10.2409 22.0619C9.76352 20.9636 10.2655 19.6862 11.3629 19.2068Z" stroke="white" stroke-width="2" stroke-miterlimit="10" stroke-linecap="round" stroke-linejoin="round"/>
<path d="M32.9672 8.75782C34.7876 9.24554 36.6586 8.16533 37.1464 6.34497L37.4273 5.29625C37.915 3.47597 36.8348 1.6049 35.0145 1.11711C33.1941 0.629387 31.3231 1.7096 30.8353 3.52995L30.5544 4.57867C30.0666 6.39895 31.1469 8.27002 32.9672 8.75782Z" stroke="white" stroke-width="2" stroke-miterlimit="10" stroke-linecap="round" stroke-linejoin="round"/>
<path d="M31.675 24.2246C30.7948 25.2299 29.6481 25.9459 28.3729 26.2975" stroke="#2E90FA" stroke-width="2" stroke-miterlimit="10" stroke-linecap="round" stroke-linejoin="round"/>
<path d="M34.6678 25.9526C33.1096 27.9883 30.8703 29.3457 28.3729 29.7937" stroke="#2E90FA" stroke-width="2" stroke-miterlimit="10" stroke-linecap="round" stroke-linejoin="round"/>
<path d="M15.4352 6.27095C16.105 5.02912 17.2184 4.12333 18.5706 3.72021" stroke="#2E90FA" stroke-width="2" stroke-miterlimit="10" stroke-linecap="round" stroke-linejoin="round"/>
</svg>
