<svg xmlns="http://www.w3.org/2000/svg" width="80" height="80" viewBox="0 0 80 80" fill="none">
    <path d="M74.9518 51.875H66.5508V37.7625C66.5345 36.8038 66.226 35.8728 65.6666 35.0941C65.1072 34.3153 64.3234 33.7259 63.42 33.4044C62.5166 33.083 61.5366 33.0449 60.611 33.2952C59.6854 33.5455 58.8582 34.0724 58.24 34.8053L43.7495 51.2477V78.125H69.8553C71.3483 78.1352 72.7962 77.6138 73.94 76.6543C75.0838 75.6947 75.849 74.3596 76.0986 72.8876L78.6974 56.2414C78.7849 55.7007 78.7534 55.1474 78.605 54.6201C78.4567 54.0928 78.195 53.6043 77.8384 53.1885C77.4818 52.7728 77.0387 52.4399 76.5401 52.213C76.0416 51.9861 75.4995 51.8708 74.9518 51.875Z" fill="#194185"/>
    <path d="M37.4995 49.375H32.4995C31.5049 49.375 30.5511 49.7701 29.8479 50.4734C29.1446 51.1766 28.7495 52.1304 28.7495 53.125V74.375C28.7495 75.3696 29.1446 76.3234 29.8479 77.0266C30.5511 77.7299 31.5049 78.125 32.4995 78.125H41.2495V53.125C41.2495 52.1304 40.8544 51.1766 40.1512 50.4734C39.4479 49.7701 38.4941 49.375 37.4995 49.375ZM36.2495 70.625C36.2495 70.9565 36.1178 71.2745 35.8834 71.5089C35.649 71.7433 35.331 71.875 34.9995 71.875C34.668 71.875 34.35 71.7433 34.1156 71.5089C33.8812 71.2745 33.7495 70.9565 33.7495 70.625V68.125C33.7495 67.7935 33.8812 67.4755 34.1156 67.2411C34.35 67.0067 34.668 66.875 34.9995 66.875C35.331 66.875 35.649 67.0067 35.8834 67.2411C36.1178 67.4755 36.2495 67.7935 36.2495 68.125V70.625Z" fill="#194185"/>
    <path d="M58.6334 35.9996C58.1665 35.6799 57.7846 35.2511 57.5208 34.7505C57.2569 34.2499 57.119 33.6926 57.119 33.1267C57.119 32.5608 57.2569 32.0035 57.5208 31.5029C57.7846 31.0023 58.1665 30.5736 58.6334 30.2538C59.6986 29.5239 60.4991 28.4688 60.9151 27.2464C61.3312 26.0239 61.3405 24.6997 60.9417 23.4715C60.5429 22.2433 59.7574 21.1771 58.7026 20.4322C57.6477 19.6873 56.3802 19.3038 55.0894 19.3389C54.5237 19.355 53.9626 19.2329 53.4548 18.9831C52.947 18.7332 52.5079 18.3632 52.1755 17.9052C51.8432 17.4472 51.6276 16.915 51.5475 16.3547C51.4675 15.7945 51.5253 15.2232 51.7161 14.6904C52.1504 13.4743 52.1791 12.1503 51.798 10.9165C51.417 9.68263 50.6467 8.60537 49.6023 7.84589C48.5579 7.0864 47.2957 6.68552 46.0045 6.70324C44.7133 6.72096 43.4626 7.15633 42.4394 7.94419C41.9918 8.28995 41.4664 8.52116 40.9091 8.61773C40.3517 8.71431 39.7792 8.67333 39.2413 8.49836C38.7034 8.32339 38.2164 8.01971 37.8225 7.61372C37.4286 7.20773 37.1399 6.7117 36.9813 6.16874C36.6178 4.92968 35.8628 3.84107 34.8291 3.06713C33.7955 2.29319 32.539 1.87493 31.2477 1.875C29.9565 1.87507 28.7 2.29346 27.6665 3.06751C26.6329 3.84157 25.878 4.92962 25.5147 6.16871C25.3561 6.7117 25.0674 7.20775 24.6735 7.61376C24.2796 8.01977 23.7926 8.32346 23.2547 8.49844C22.7168 8.67342 22.1443 8.7144 21.5869 8.61782C21.0295 8.52123 20.5042 8.29 20.0565 7.94423C19.0335 7.15636 17.7828 6.72096 16.4916 6.70318C15.2005 6.68541 13.9383 7.08621 12.8939 7.84562C11.8496 8.60504 11.0792 9.68221 10.6981 10.916C10.317 12.1497 10.3457 13.4737 10.7798 14.6898C10.9762 15.2376 11.0321 15.8258 10.9426 16.4007C10.8531 16.9756 10.621 17.519 10.2674 17.9811C9.91387 18.4432 9.45016 18.8094 8.91865 19.0461C8.38714 19.2829 7.80478 19.3827 7.22477 19.3364C5.94902 19.3407 4.70803 19.7526 3.68298 20.5121C2.65793 21.2716 1.90252 22.3388 1.52703 23.5581C1.15153 24.7773 1.17563 26.0847 1.5958 27.2893C2.01597 28.4938 2.81021 29.5325 3.86255 30.2537C4.32941 30.5735 4.7113 31.0023 4.97517 31.5028C5.23905 32.0034 5.37695 32.5608 5.37695 33.1267C5.37695 33.6925 5.23905 34.2499 4.97517 34.7505C4.7113 35.2511 4.32941 35.6798 3.86255 35.9996C2.79738 36.7294 1.99695 37.7843 1.58085 39.0067C1.16475 40.229 1.15531 41.5532 1.55395 42.7814C1.95259 44.0095 2.7379 45.0757 3.79256 45.8207C4.84722 46.5656 6.11461 46.9494 7.40537 46.9145C7.97107 46.8984 8.53216 47.0206 9.03997 47.2704C9.54777 47.5202 9.98696 47.8902 10.3194 48.3481C10.6519 48.8061 10.8676 49.3383 10.9478 49.8985C11.0281 50.4587 10.9704 51.0301 10.7798 51.563C10.3456 52.7791 10.3168 54.1031 10.6978 55.337C11.0789 56.5708 11.8492 57.6481 12.8936 58.4076C13.938 59.1671 15.2002 59.568 16.4914 59.5502C17.7827 59.5325 19.0334 59.0971 20.0565 58.3092C20.5043 57.9635 21.0296 57.7323 21.587 57.6357C22.1444 57.5392 22.7169 57.5803 23.2548 57.7553C23.7928 57.9303 24.2798 58.2341 24.6736 58.6402C25.0675 59.0462 25.3562 59.5423 25.5147 60.0853C25.8781 61.3244 26.6332 62.4124 27.6668 63.1864C28.7004 63.9604 29.9569 64.3786 31.2482 64.3786C32.5395 64.3785 33.796 63.9601 34.8295 63.186C35.863 62.4119 36.618 61.3238 36.9813 60.0847C37.14 59.5419 37.4289 59.046 37.8228 58.6402C38.2167 58.2343 38.7037 57.9307 39.2415 57.7558C39.7794 57.5808 40.3518 57.5398 40.9091 57.6362C41.4663 57.7327 41.9917 57.9637 42.4394 58.3092C43.4625 59.0971 44.7132 59.5325 46.0043 59.5502C47.2955 59.568 48.5577 59.1672 49.602 58.4078C50.6464 57.6484 51.4168 56.5712 51.7979 55.3375C52.1789 54.1037 52.1503 52.7797 51.7161 51.5636C51.5254 51.0308 51.4675 50.4595 51.5475 49.8992C51.6276 49.339 51.8431 48.8067 52.1755 48.3486C52.5079 47.8906 52.947 47.5205 53.4548 47.2706C53.9626 47.0207 54.5236 46.8985 55.0894 46.9146C56.3801 46.9495 57.6475 46.5658 58.7023 45.8209C59.757 45.076 60.5424 44.0099 60.9412 42.7818C61.3399 41.5537 61.3306 40.2295 60.9147 39.0071C60.4987 37.7847 59.6985 36.7297 58.6334 35.9996ZM55.1577 44.4158C54.1866 44.3903 53.2239 44.6017 52.3527 45.0315C51.4816 45.4614 50.7281 46.0968 50.1575 46.883C49.5869 47.6692 49.2163 48.5825 49.0776 49.544C48.9389 50.5054 49.0364 51.4862 49.3616 52.4016C49.6151 53.1093 49.6324 53.8801 49.411 54.5984C49.1897 55.3168 48.7415 55.9441 48.1336 56.3863C47.5257 56.8285 46.7909 57.0619 46.0393 57.0513C45.2877 57.0408 44.5597 56.7871 43.9644 56.328C43.1945 55.7357 42.292 55.3399 41.3347 55.1749C40.3775 55.01 39.3945 55.0808 38.4708 55.3812C37.5471 55.6816 36.7105 56.2026 36.0335 56.8992C35.3564 57.5957 34.8593 58.4467 34.5852 59.3786C34.3741 60.1001 33.9348 60.7338 33.3332 61.1847C32.7316 61.6355 32 61.8792 31.2482 61.8793C30.4964 61.8794 29.7648 61.6358 29.1631 61.185C28.5614 60.7343 28.122 60.1007 27.9107 59.3792C27.6359 58.4478 27.1385 57.5974 26.4614 56.9013C25.7843 56.2053 24.9479 55.6846 24.0245 55.3842C23.101 55.0838 22.1184 55.0128 21.1614 55.1772C20.2043 55.3416 19.3017 55.7366 18.5316 56.328C17.9362 56.7871 17.2082 57.0409 16.4565 57.0513C15.7048 57.0618 14.9699 56.8284 14.362 56.3861C13.7542 55.9438 13.306 55.3164 13.0846 54.598C12.8633 53.8795 12.8808 53.1087 13.1344 52.401C13.4597 51.4856 13.5572 50.5047 13.4185 49.5431C13.2798 48.5815 12.909 47.6681 12.3382 46.882C11.7675 46.0958 11.0138 45.4604 10.1425 45.0307C9.27112 44.601 8.30825 44.39 7.33705 44.4158C6.58576 44.4359 5.84813 44.2124 5.23433 43.7787C4.62054 43.345 4.16353 42.7243 3.93156 42.0095C3.69959 41.2946 3.70511 40.5239 3.9473 39.8124C4.18949 39.1009 4.65535 38.4869 5.27529 38.062C6.0759 37.5117 6.73061 36.7749 7.18294 35.9152C7.63526 35.0554 7.87162 34.0985 7.87162 33.127C7.87162 32.1555 7.63526 31.1986 7.18294 30.3389C6.73061 29.4791 6.0759 28.7423 5.27529 28.192C4.65528 27.7671 4.18936 27.1531 3.94713 26.4415C3.7049 25.73 3.69936 24.9592 3.93133 24.2443C4.1633 23.5294 4.62034 22.9086 5.23417 22.4749C5.848 22.0411 6.58569 21.8176 7.33705 21.8377C8.30828 21.8634 9.27116 21.6523 10.1425 21.2225C11.0139 20.7928 11.7675 20.1573 12.3383 19.3711C12.909 18.5848 13.2798 17.6715 13.4185 16.7098C13.5572 15.7482 13.4597 14.7673 13.1344 13.8518C12.881 13.1442 12.8637 12.3734 13.0851 11.6551C13.3065 10.9368 13.7547 10.3096 14.3626 9.8674C14.9704 9.42521 15.7051 9.19187 16.4567 9.20233C17.2083 9.21279 17.9363 9.46649 18.5316 9.92543C19.3015 10.5174 20.2041 10.913 21.1612 11.0778C22.1184 11.2426 23.1013 11.1717 24.0249 10.8713C24.9485 10.5709 25.785 10.05 26.4621 9.35369C27.1391 8.65736 27.6364 7.80656 27.9107 6.87489C28.1218 6.15326 28.5611 5.5195 29.1628 5.06862C29.7645 4.61773 30.4961 4.37402 31.248 4.37402C31.9998 4.37402 32.7315 4.61773 33.3331 5.06862C33.9348 5.5195 34.3741 6.15326 34.5852 6.87489C34.8595 7.80664 35.3567 8.65752 36.0337 9.35392C36.7108 10.0503 37.5473 10.5713 38.471 10.8717C39.3946 11.1721 40.3775 11.2429 41.3347 11.0781C42.2919 10.9132 43.1945 10.5176 43.9644 9.92543C44.5597 9.46643 45.2878 9.2127 46.0394 9.20226C46.7911 9.19181 47.5259 9.42522 48.1338 9.8675C48.7416 10.3098 49.1898 10.9371 49.4112 11.6555C49.6325 12.3739 49.6151 13.1447 49.3616 13.8524C49.0365 14.7678 48.9391 15.7485 49.0778 16.7099C49.2165 17.6713 49.5872 18.5845 50.1578 19.3707C50.7284 20.1568 51.4818 20.7922 52.3529 21.222C53.224 21.6518 54.1866 21.8631 55.1577 21.8377C55.909 21.8175 56.6466 22.0409 57.2605 22.4746C57.8744 22.9082 58.3315 23.5288 58.5636 24.2436C58.7957 24.9584 58.7903 25.7292 58.5482 26.4407C58.3062 27.1522 57.8405 27.7664 57.2207 28.1914C56.42 28.7417 55.7653 29.4785 55.313 30.3383C54.8607 31.198 54.6243 32.1549 54.6243 33.1264C54.6243 34.0979 54.8607 35.0548 55.313 35.9146C55.7653 36.7743 56.42 37.5111 57.2207 38.0614C57.8405 38.4865 58.3061 39.1007 58.5482 39.8123C58.7902 40.5238 58.7955 41.2946 58.5635 42.0094C58.3314 42.7243 57.8743 43.3449 57.2605 43.7786C56.6466 44.2123 55.909 44.4358 55.1577 44.4158Z" fill="#1570EF"/>
    <path d="M45.7686 25.7134C45.4628 25.8413 45.2203 26.0854 45.0945 26.3921C44.9687 26.6987 44.9698 27.0427 45.0976 27.3486C46.477 30.656 46.6262 34.3481 45.5182 37.756C44.4101 41.1639 42.1181 44.0623 39.0573 45.926C35.9966 47.7897 32.3695 48.4956 28.8332 47.9156C25.2969 47.3357 22.0853 45.5083 19.7801 42.7646C17.475 40.0208 16.2288 36.5422 16.2673 32.9589C16.3058 29.3755 17.6264 25.9245 19.99 23.231C22.3536 20.5374 25.6038 18.7795 29.1517 18.2757C32.6997 17.7718 36.3108 18.5555 39.3308 20.4845C39.61 20.6631 39.9488 20.7235 40.2725 20.6523C40.5963 20.5812 40.8785 20.3843 41.0571 20.1051C41.2357 19.8258 41.296 19.4871 41.2249 19.1633C41.1537 18.8396 40.9569 18.5574 40.6776 18.3788C37.1571 16.1308 32.9479 15.218 28.8125 15.8058C24.677 16.3935 20.8888 18.4429 18.1341 21.5828C15.3793 24.7226 13.8402 28.7453 13.7954 32.922C13.7507 37.0988 15.2034 41.1535 17.8903 44.3516C20.5772 47.5497 24.3206 49.6798 28.4425 50.3559C32.5644 51.0321 36.7922 50.2096 40.3601 48.0375C43.9279 45.8655 46.5998 42.4874 47.8919 38.5152C49.1839 34.5431 49.0106 30.2395 47.4033 26.3841C47.2752 26.0787 47.0311 25.8365 46.7246 25.7108C46.4182 25.585 46.0743 25.586 45.7686 25.7134Z" fill="#1570EF"/>
    <path d="M22.1489 30.9929C22.033 30.8763 21.8952 30.7837 21.7434 30.7204C21.5916 30.6572 21.4288 30.6245 21.2644 30.6243C21.0999 30.624 20.9371 30.6563 20.7851 30.7191C20.6332 30.782 20.4951 30.8742 20.3789 30.9905C20.2626 31.1068 20.1705 31.2449 20.1078 31.3969C20.045 31.5489 20.0129 31.7118 20.0132 31.8762C20.0135 32.0406 20.0463 32.2034 20.1096 32.3551C20.173 32.5069 20.2657 32.6446 20.3824 32.7605L27.8779 40.2605C27.9992 40.3819 28.1442 40.477 28.3038 40.5398C28.4635 40.6027 28.6344 40.632 28.8059 40.6259C28.9774 40.6197 29.1457 40.5783 29.3005 40.5042C29.4553 40.4301 29.5931 40.3249 29.7054 40.1952L45.9457 21.4452C46.0532 21.3212 46.1352 21.1772 46.1871 21.0215C46.2389 20.8658 46.2596 20.7014 46.2479 20.5378C46.2362 20.3741 46.1924 20.2143 46.119 20.0675C46.0456 19.9208 45.944 19.7899 45.82 19.6824C45.6959 19.5749 45.552 19.4929 45.3963 19.4411C45.2406 19.3892 45.0762 19.3686 44.9125 19.3802C44.7488 19.3919 44.5891 19.4357 44.4423 19.5092C44.2955 19.5826 44.1647 19.6842 44.0572 19.8082L28.6953 37.5438L22.1489 30.9929Z" fill="#1570EF"/>
</svg>